<svg id="Layer_1" data-name="Layer 1" xmlns="http://www.w3.org/2000/svg" viewBox="0 0 235 231.47"><defs><style>.cls-1,.cls-10,.cls-13{font-size:7px;}.cls-1,.cls-3,.cls-4{fill:#b53d46;font-family:Menlo-Bold, Menlo;font-weight:700;}.cls-2{font-family:Menlo-Regular, Menlo;font-weight:400;fill:#000;}.cls-4,.cls-5{letter-spacing:0em;}.cls-6{fill:#fff;}.cls-12,.cls-14,.cls-6,.cls-8{stroke:#000;}.cls-12,.cls-14,.cls-6,.cls-7,.cls-8{stroke-miterlimit:10;stroke-width:0.5px;}.cls-7,.cls-8{fill:none;}.cls-7{stroke:#b3b3b3;}.cls-11,.cls-9{font-size:6px;}.cls-11,.cls-13,.cls-9{font-family:ArialMT, Arial;}.cls-10{font-family:Arial-ItalicMT, Arial;font-style:italic;}.cls-11{letter-spacing:-0.06em;}.cls-12{fill:#b3b3b3;}</style></defs><text class="cls-1" transform="translate(49.67 63.49)">map_s<tspan class="cls-2" x="21.07" y="0" xml:space="preserve"> f :: </tspan><tspan x="46.36" y="0">SSeq</tspan><tspan class="cls-2" x="63.22" y="0" xml:space="preserve"> 4 t -&gt; </tspan><tspan x="96.93" y="0">SSeq</tspan><tspan class="cls-2" x="113.79" y="0" xml:space="preserve"> 4 t’</tspan><tspan class="cls-2"><tspan x="0" y="8.4">throughput(</tspan><tspan class="cls-3" x="46.36" y="8.4">map_s</tspan><tspan x="67.43" y="8.4" xml:space="preserve"> f) = 4 elt/clk</tspan><tspan x="0" y="16.8">area(</tspan><tspan class="cls-3" x="21.07" y="16.8">map_s</tspan><tspan x="42.14" y="16.8" xml:space="preserve"> f)       = 4 x area(f)</tspan></tspan></text><text class="cls-1" transform="translate(43.35 127.29)">map_t<tspan class="cls-2" x="21.07" y="0" xml:space="preserve"> f :: </tspan><tspan x="46.36" y="0">TSeq</tspan><tspan class="cls-2" x="63.22" y="0" xml:space="preserve"> 4 0 t -&gt; </tspan><tspan x="105.36" y="0">TSeq</tspan><tspan class="cls-2" x="122.22" y="0" xml:space="preserve"> 4 0 t’</tspan><tspan class="cls-2"><tspan x="0" y="8.4">throughput(</tspan><tspan class="cls-3" x="46.36" y="8.4">map_t</tspan><tspan x="67.43" y="8.4" xml:space="preserve"> f) = 1 elt/clk</tspan><tspan x="0" y="16.8">area(</tspan><tspan class="cls-3" x="21.07" y="16.8">map_t</tspan><tspan x="42.14" y="16.8" xml:space="preserve"> f)       = area(f)</tspan></tspan></text><text class="cls-1" transform="translate(18.06 203.51)">map_t <tspan class="cls-2" x="25.29" y="0">(</tspan><tspan x="29.5" y="0">map_s</tspan><tspan class="cls-2" x="50.57" y="0" xml:space="preserve"> f)</tspan><tspan class="cls-2"><tspan x="0" y="8.4" xml:space="preserve">  :: </tspan><tspan class="cls-3" x="21.07" y="8.4">TSeq</tspan><tspan x="37.93" y="8.4" xml:space="preserve"> 2 0 (</tspan><tspan class="cls-3" x="63.22" y="8.4">SSeq</tspan><tspan x="80.07" y="8.4" xml:space="preserve"> 2 t) -&gt; </tspan><tspan class="cls-3" x="118" y="8.4">TSeq</tspan><tspan x="134.86" y="8.4" xml:space="preserve"> 2 0 (</tspan><tspan class="cls-4" x="160.15" y="8.4">SSeq</tspan><tspan class="cls-5" x="177" y="8.4" xml:space="preserve"> 2 t’)</tspan><tspan x="0" y="16.8">throughput(</tspan><tspan class="cls-3" x="46.36" y="16.8">map_t </tspan><tspan x="71.64" y="16.8">(</tspan><tspan class="cls-3" x="75.86" y="16.8">map_s</tspan><tspan x="96.93" y="16.8" xml:space="preserve"> f)) = 2 elt/clk</tspan><tspan x="0" y="25.2">area(</tspan><tspan class="cls-3" x="21.07" y="25.2">map_t </tspan><tspan x="46.36" y="25.2">(</tspan><tspan class="cls-3" x="50.57" y="25.2">map_s</tspan><tspan x="71.64" y="25.2" xml:space="preserve"> f))       = 2 x area(f)</tspan></tspan></text><rect class="cls-6" x="89.1" y="159.48" width="8.26" height="8.26"/><rect class="cls-6" x="89.1" y="169.86" width="8.26" height="8.26"/><rect class="cls-7" x="87.79" y="158.22" width="10.88" height="21.44"/><rect class="cls-6" x="76.8" y="159.48" width="8.26" height="8.26"/><rect class="cls-6" x="76.8" y="169.86" width="8.26" height="8.26"/><rect class="cls-7" x="75.49" y="158.22" width="10.88" height="21.44"/><line class="cls-8" x1="75.34" y1="188.41" x2="102.03" y2="188.41"/><polygon points="101.66 189.66 103.82 188.41 101.66 187.17 101.66 189.66"/><line class="cls-8" x1="94.18" y1="187.17" x2="94.18" y2="189.21"/><line class="cls-8" x1="81.88" y1="187.2" x2="81.88" y2="189.24"/><text class="cls-9" transform="translate(92.54 195.32)">1</text><text class="cls-9" transform="translate(80.21 195.32)">0</text><text class="cls-10" transform="translate(63.85 190.26)">clk</text><text class="cls-11" transform="translate(79.54 165.67)">0</text><text class="cls-11" transform="translate(79.26 175.68)">1</text><text class="cls-11" transform="translate(91.75 165.67)">2</text><text class="cls-11" transform="translate(91.56 175.68)">3</text><rect class="cls-6" x="68.55" y="93.59" width="8.26" height="8.26"/><rect class="cls-6" x="56.25" y="93.59" width="8.26" height="8.26"/><rect class="cls-6" x="93.15" y="93.96" width="8.26" height="8.26"/><rect class="cls-6" x="80.85" y="93.59" width="8.26" height="8.26"/><line class="cls-8" x1="53.84" y1="107.69" x2="105.53" y2="107.69"/><polygon points="105.17 108.94 107.32 107.69 105.17 106.44 105.17 108.94"/><line class="cls-8" x1="97.28" y1="106.44" x2="97.28" y2="108.48"/><line class="cls-8" x1="84.69" y1="106.48" x2="84.69" y2="108.52"/><line class="cls-8" x1="72.68" y1="106.44" x2="72.68" y2="108.48"/><line class="cls-8" x1="60.38" y1="106.48" x2="60.38" y2="108.52"/><text class="cls-9" transform="translate(95.69 114.6)">3</text><text class="cls-9" transform="translate(83.37 114.6)">2</text><text class="cls-9" transform="translate(71.04 114.6)">1</text><text class="cls-9" transform="translate(58.71 114.6)">0</text><text class="cls-10" transform="translate(44 109.53)">clk</text><text class="cls-9" transform="translate(58.71 99.69)">0</text><text class="cls-9" transform="translate(71.01 99.69)">1</text><text class="cls-9" transform="translate(83.31 99.69)">2</text><text class="cls-9" transform="translate(95.82 99.68)">3</text><rect class="cls-12" x="111.87" y="93.24" width="12.41" height="8.95" rx="2"/><text class="cls-13" transform="translate(116.98 99.89)">f</text><line class="cls-8" x1="104.24" y1="97.72" x2="110.07" y2="97.72"/><polygon points="109.71 98.96 111.87 97.72 109.71 96.47 109.71 98.96"/><line class="cls-8" x1="124.28" y1="98.09" x2="130.12" y2="98.09"/><polygon points="129.75 99.34 131.91 98.09 129.75 96.85 129.75 99.34"/><rect class="cls-6" x="146.29" y="93.49" width="8.26" height="8.26"/><rect class="cls-6" x="133.99" y="93.49" width="8.26" height="8.26"/><rect class="cls-6" x="170.89" y="93.87" width="8.26" height="8.26"/><rect class="cls-6" x="158.59" y="93.49" width="8.26" height="8.26"/><line class="cls-8" x1="131.58" y1="107.72" x2="183.27" y2="107.72"/><polygon points="182.91 108.97 185.06 107.72 182.91 106.48 182.91 108.97"/><line class="cls-8" x1="175.02" y1="106.48" x2="175.02" y2="108.52"/><line class="cls-8" x1="162.43" y1="106.51" x2="162.43" y2="108.55"/><line class="cls-8" x1="150.42" y1="106.48" x2="150.42" y2="108.52"/><line class="cls-8" x1="138.12" y1="106.51" x2="138.12" y2="108.55"/><text class="cls-9" transform="translate(173.44 114.63)">3</text><text class="cls-9" transform="translate(161.11 114.63)">2</text><text class="cls-9" transform="translate(148.78 114.63)">1</text><text class="cls-9" transform="translate(136.45 114.63)">0</text><text class="cls-9" transform="translate(136.45 99.6)">0</text><text class="cls-9" transform="translate(148.75 99.6)">1</text><text class="cls-9" transform="translate(161.05 99.6)">2</text><text class="cls-9" transform="translate(173.56 99.58)">3</text><rect class="cls-6" x="91.93" y="2.29" width="8.26" height="8.26"/><rect class="cls-6" x="91.93" y="12.91" width="8.26" height="8.26"/><rect class="cls-6" x="91.93" y="23.53" width="8.26" height="8.26"/><rect class="cls-6" x="91.93" y="34.14" width="8.26" height="8.26"/><line class="cls-8" x1="89.54" y1="46.82" x2="102.23" y2="46.82"/><polygon points="101.87 48.07 104.03 46.82 101.87 45.58 101.87 48.07"/><line class="cls-8" x1="96.08" y1="45.61" x2="96.08" y2="47.65"/><text class="cls-9" transform="translate(94.42 53.73)">0</text><text class="cls-10" transform="translate(78.44 48.67)">clk</text><text class="cls-9" transform="translate(94.14 8.84)">0</text><text class="cls-9" transform="translate(94.14 19.36)">1</text><text class="cls-9" transform="translate(94.14 29.88)">2</text><text class="cls-9" transform="translate(94.14 40.41)">3</text><rect class="cls-12" x="111.59" y="1.95" width="12.41" height="8.95" rx="2"/><rect class="cls-6" x="135.9" y="2.17" width="8.26" height="8.26"/><rect class="cls-6" x="135.9" y="12.79" width="8.26" height="8.26"/><rect class="cls-6" x="135.9" y="23.4" width="8.26" height="8.26"/><rect class="cls-6" x="135.9" y="34.02" width="8.26" height="8.26"/><line class="cls-8" x1="133.52" y1="46.7" x2="146.21" y2="46.7"/><polygon points="145.84 47.95 148 46.7 145.84 45.45 145.84 47.95"/><line class="cls-8" x1="140.06" y1="45.48" x2="140.06" y2="47.53"/><text class="cls-9" transform="translate(138.39 53.6)">0</text><text class="cls-9" transform="translate(138.12 8.71)">0</text><text class="cls-9" transform="translate(138.12 19.24)">1</text><text class="cls-9" transform="translate(138.12 29.76)">2</text><text class="cls-9" transform="translate(138.12 40.28)">3</text><text class="cls-13" transform="translate(116.7 8.59)">f</text><rect class="cls-12" x="111.59" y="12.55" width="12.41" height="8.95" rx="2"/><rect class="cls-12" x="111.59" y="23.14" width="12.41" height="8.95" rx="2"/><rect class="cls-12" x="111.59" y="33.74" width="12.41" height="8.95" rx="2"/><text class="cls-13" transform="translate(116.7 19.07)">f</text><text class="cls-13" transform="translate(116.7 29.88)">f</text><text class="cls-13" transform="translate(116.7 40.36)">f</text><rect class="cls-8" x="109.73" y="0.25" width="16.13" height="44.43" rx="2"/><line class="cls-8" x1="100.18" y1="6.42" x2="107.93" y2="6.42"/><polygon points="107.57 7.67 109.73 6.42 107.57 5.18 107.57 7.67"/><line class="cls-8" x1="100.18" y1="17.05" x2="107.93" y2="17.05"/><polygon points="107.57 18.3 109.73 17.05 107.57 15.81 107.57 18.3"/><line class="cls-8" x1="100.18" y1="27.69" x2="107.93" y2="27.69"/><polygon points="107.57 28.93 109.73 27.69 107.57 26.44 107.57 28.93"/><line class="cls-8" x1="100.18" y1="38.32" x2="107.93" y2="38.32"/><polygon points="107.57 39.56 109.73 38.32 107.57 37.07 107.57 39.56"/><line class="cls-8" x1="125.86" y1="6.66" x2="133.61" y2="6.66"/><polygon points="133.24 7.9 135.4 6.66 133.24 5.41 133.24 7.9"/><line class="cls-8" x1="125.86" y1="17.29" x2="133.61" y2="17.29"/><polygon points="133.24 18.54 135.4 17.29 133.24 16.04 133.24 18.54"/><line class="cls-8" x1="125.86" y1="27.92" x2="133.61" y2="27.92"/><polygon points="133.24 29.17 135.4 27.92 133.24 26.67 133.24 29.17"/><line class="cls-8" x1="125.86" y1="38.55" x2="133.61" y2="38.55"/><polygon points="133.24 39.8 135.4 38.55 133.24 37.3 133.24 39.8"/><rect class="cls-6" x="150.14" y="159.25" width="8.26" height="8.26"/><rect class="cls-6" x="150.14" y="169.64" width="8.26" height="8.26"/><rect class="cls-7" x="148.83" y="157.99" width="10.88" height="21.44"/><rect class="cls-6" x="137.84" y="159.25" width="8.26" height="8.26"/><rect class="cls-6" x="137.84" y="169.64" width="8.26" height="8.26"/><rect class="cls-7" x="136.53" y="157.99" width="10.88" height="21.44"/><line class="cls-8" x1="136.38" y1="188.19" x2="163.07" y2="188.19"/><polygon points="162.7 189.44 164.86 188.19 162.7 186.94 162.7 189.44"/><line class="cls-8" x1="155.22" y1="186.94" x2="155.22" y2="188.98"/><line class="cls-8" x1="142.92" y1="186.98" x2="142.92" y2="189.02"/><text class="cls-9" transform="translate(153.58 195.1)">1</text><text class="cls-9" transform="translate(141.25 195.1)">0</text><text class="cls-11" transform="translate(140.57 165.45)">0</text><text class="cls-11" transform="translate(140.3 175.46)">1</text><text class="cls-11" transform="translate(152.78 165.45)">2</text><text class="cls-11" transform="translate(152.6 175.46)">3</text><rect class="cls-12" x="111.7" y="159.42" width="12.41" height="8.95" rx="2"/><text class="cls-13" transform="translate(116.81 166.06)">f</text><rect class="cls-12" x="111.7" y="170.02" width="12.41" height="8.95" rx="2"/><text class="cls-13" transform="translate(116.81 176.55)">f</text><rect class="cls-8" x="109.84" y="157.72" width="16.13" height="23.63" rx="2"/><line class="cls-8" x1="100.29" y1="163.89" x2="108.04" y2="163.89"/><polygon points="107.68 165.14 109.84 163.89 107.68 162.65 107.68 165.14"/><line class="cls-8" x1="100.29" y1="174.53" x2="108.04" y2="174.53"/><polygon points="107.68 175.77 109.84 174.53 107.68 173.28 107.68 175.77"/><line class="cls-8" x1="125.97" y1="164.13" x2="133.72" y2="164.13"/><polygon points="133.35 165.38 135.51 164.13 133.35 162.88 133.35 165.38"/><line class="cls-8" x1="125.97" y1="174.76" x2="133.72" y2="174.76"/><polygon points="133.35 176.01 135.51 174.76 133.35 173.51 133.35 176.01"/><line class="cls-14" y1="85.58" x2="235" y2="85.58"/><line class="cls-14" y1="151.66" x2="235" y2="151.66"/></svg>